<mxfile host="app.diagrams.net" modified="2023-05-01T01:46:41.703Z" agent="Mozilla/5.0 (Windows NT 10.0; Win64; x64) AppleWebKit/537.36 (KHTML, like Gecko) Chrome/112.0.0.0 Safari/537.36" version="21.2.3" etag="TIbmdb3e8Y6kkFulagPC" type="github">
  <diagram name="페이지-1" id="s4SqLVqtjfs1ywucYcsI">
    <mxGraphModel>
      <root>
        <mxCell id="0" />
        <mxCell id="1" parent="0" />
      </root>
    </mxGraphModel>
  </diagram>
</mxfile>
